<?xml version="1.0" standalone="no"?>
<!DOCTYPE svg PUBLIC "-//W3C//DTD SVG 20010904//EN"
 "http://www.w3.org/TR/2001/REC-SVG-20010904/DTD/svg10.dtd">
<svg version="1.0" xmlns="http://www.w3.org/2000/svg"
 width="251.000000pt" height="251.000000pt" viewBox="0 0 251.000000 251.000000"
 preserveAspectRatio="xMidYMid meet">
<metadata>
Created by potrace 1.14, written by Peter Selinger 2001-2017
</metadata>
<g transform="translate(0.000000,251.000000) scale(0.100000,-0.100000)"
fill="#000000" stroke="none">
<path d="M686 2023 c-2 -10 -17 -103 -32 -207 -21 -147 -31 -194 -46 -210 -30
-33 -31 -58 -6 -152 l24 -89 -48 -74 -48 -74 0 -296 c0 -163 -4 -301 -8 -306
-5 -6 -19 -28 -31 -50 l-22 -40 23 29 c13 16 30 38 40 50 30 38 29 9 -1 -43
-40 -68 -31 -65 15 4 20 30 41 55 45 55 14 0 11 -12 -16 -55 -13 -22 -24 -44
-24 -50 0 -5 16 16 35 48 20 31 40 57 45 57 13 0 12 -5 -16 -60 -34 -66 -24
-64 17 5 42 71 65 73 32 4 -34 -69 -25 -72 12 -4 39 74 61 73 28 -1 -34 -76
-25 -79 11 -4 37 77 64 83 34 8 -11 -29 -23 -56 -25 -60 -3 -4 -3 -8 1 -8 3 0
18 26 33 57 36 75 60 84 33 12 -27 -71 -20 -73 13 -4 14 30 30 55 36 55 13 0
13 0 -5 -50 -23 -65 -17 -72 8 -11 13 30 29 57 36 59 9 3 11 -2 8 -14 -4 -11
-9 -32 -12 -49 -4 -22 0 -18 16 18 12 26 26 47 31 47 9 0 2 -58 -14 -100 -6
-16 -6 -21 0 -15 5 6 17 34 27 63 9 28 21 52 27 52 10 0 8 -24 -7 -100 -3 -14
5 3 17 38 12 34 26 62 31 62 5 0 6 -24 3 -52 l-5 -53 17 53 c9 28 20 52 24 52
5 0 8 -19 9 -42 l1 -43 11 39 c19 61 34 56 31 -11 l-3 -58 12 54 c18 81 40 81
31 0 -8 -76 2 -75 13 1 11 73 33 79 34 8 1 -54 3 -52 14 15 10 60 25 43 26
-30 2 -66 3 -63 15 24 7 53 24 56 25 6 1 -21 5 -49 9 -63 6 -19 8 -9 9 38 1
89 24 79 32 -14 l5 -69 2 73 c2 54 5 73 15 70 6 -3 15 -24 18 -49 l6 -44 1 48
c3 67 24 57 38 -19 l12 -59 1 63 c1 73 16 82 26 16 12 -80 23 -93 17 -21 -6
86 11 89 31 5 l15 -63 -5 63 c-7 77 8 82 31 10 l16 -53 -5 52 c-8 73 10 68 35
-9 16 -50 19 -55 14 -23 -3 22 -8 51 -11 64 -11 44 20 17 39 -35 17 -47 18
-47 12 -11 -3 21 -8 45 -11 54 -4 10 -2 14 7 11 7 -2 22 -28 32 -58 11 -30 25
-59 30 -65 5 -5 4 3 -2 19 -6 16 -14 46 -19 68 -13 57 9 44 35 -20 29 -73 36
-75 14 -3 -25 84 -1 83 33 -1 15 -35 26 -58 27 -51 0 7 -9 35 -20 63 -27 68
-2 69 30 0 27 -57 38 -62 15 -6 -27 64 -12 77 19 18 30 -60 45 -65 21 -9 -34
82 -8 71 35 -14 38 -75 48 -77 15 -3 -28 64 -28 64 -16 64 5 0 21 -20 35 -45
26 -44 47 -65 26 -26 -5 11 -14 31 -20 45 -17 47 8 28 46 -34 20 -33 39 -60
41 -60 2 0 -10 27 -27 60 -38 75 -22 78 26 5 20 -30 39 -55 41 -55 3 0 -10 25
-27 55 -36 63 -25 74 16 18 45 -61 49 -62 16 -2 l-32 56 0 292 0 292 -26 45
-26 44 31 35 c17 20 34 47 37 61 6 25 -21 114 -35 114 -4 0 -21 20 -38 44 -28
40 -34 60 -57 222 -15 99 -29 196 -32 217 l-7 37 -583 0 c-546 0 -583 -1 -588
-17z m1124 -27 c0 -2 -9 -25 -20 -50 l-19 -46 -373 0 c-296 0 -383 3 -420 15
-42 12 -55 12 -103 -1 -91 -23 -98 -21 -122 36 l-21 50 539 0 c296 0 539 -2
539 -4z m-1060 -131 c-6 -11 -22 -35 -35 -54 -23 -31 -25 -32 -25 -11 0 27 19
148 27 170 3 9 12 -4 25 -35 15 -38 17 -54 8 -70z m1106 -61 c14 -92 23 -168
22 -170 -2 -1 -15 0 -29 3 -26 5 -27 8 -43 132 -16 120 -16 131 0 170 9 23 19
40 22 37 2 -3 15 -80 28 -172z m-1066 82 c0 -3 -4 -8 -10 -11 -5 -3 -10 -1
-10 4 0 6 5 11 10 11 6 0 10 -2 10 -4z m195 -16 c6 -5 26 -8 47 -7 25 1 44 -6
64 -24 74 -66 94 -89 94 -108 0 -12 2 -21 4 -21 29 0 247 -55 276 -70 22 -11
50 -20 63 -20 28 0 93 -25 101 -39 3 -5 33 -3 68 5 35 7 85 13 112 14 48 0 52
-2 103 -57 119 -128 94 -178 -137 -278 -149 -65 -146 -54 6 20 133 64 174 97
174 140 0 37 -74 141 -109 153 -31 11 -107 4 -181 -18 -24 -7 -36 -7 -38 0 -6
16 -83 50 -114 50 -16 0 -46 9 -66 19 -21 10 -88 31 -151 46 -109 26 -113 28
-127 61 -8 18 -26 41 -42 51 -15 9 -37 25 -49 36 -12 10 -39 21 -60 22 -21 2
-62 7 -91 10 -45 6 -59 3 -95 -18 -67 -40 -87 -63 -87 -103 0 -44 -12 -66 -67
-128 -23 -26 -43 -58 -43 -70 0 -12 18 -82 40 -156 42 -142 45 -160 31 -160
-10 0 -91 279 -91 315 0 18 17 47 51 85 40 47 52 67 55 101 6 66 12 77 61 110
75 52 160 69 198 39z m807 -105 c9 -65 15 -122 12 -126 -2 -4 -35 -12 -73 -19
-68 -11 -71 -11 -163 23 -51 19 -131 42 -178 51 -149 28 -158 32 -166 71 -3
19 -3 43 1 52 7 15 9 13 15 -12 l8 -30 2 35 3 35 4 -35 5 -35 13 30 13 30 2
-30 2 -30 8 30 c4 17 8 22 9 13 0 -10 6 -18 11 -18 6 0 11 8 11 18 1 9 5 4 9
-13 l8 -30 1 30 c1 31 15 25 24 -10 3 -13 6 -8 7 15 l3 35 7 -35 c5 -22 8 -27
9 -13 2 33 21 38 22 6 2 -26 2 -25 9 7 5 23 8 28 9 13 0 -13 6 -23 11 -23 6 0
11 10 11 23 1 15 4 10 9 -13 l7 -35 2 35 3 35 13 -30 14 -30 2 30 2 30 7 -35
c7 -31 7 -32 9 -7 0 15 6 27 11 27 6 0 11 -12 11 -27 2 -25 2 -24 9 7 7 32 7
33 9 7 1 -32 20 -27 22 6 1 14 4 9 9 -13 l7 -35 2 35 c2 34 3 34 13 10 l11
-25 7 25 c7 23 8 22 11 -10 2 -31 2 -32 6 -7 2 15 9 27 14 27 5 0 10 -12 10
-27 2 -25 2 -24 9 7 l7 35 2 -30 2 -30 14 30 13 30 1 -29 c1 -37 6 -31 15 17
l7 37 -315 0 c-202 0 -317 4 -321 10 -4 7 104 9 327 8 l333 -3 17 -120z m-805
64 c6 -6 23 -7 39 -3 18 5 31 2 38 -7 6 -8 24 -23 40 -33 34 -21 28 -29 -42
-49 -52 -15 -97 -13 -86 4 3 5 -5 9 -18 10 -21 1 -21 2 7 15 l30 14 -45 -5
-45 -5 55 20 c50 17 51 18 15 13 -22 -3 -50 -10 -63 -14 -34 -13 -40 -10 -18
6 17 13 17 15 4 15 -9 0 -29 -5 -44 -10 -15 -6 -29 -9 -31 -6 -2 2 22 13 54
25 46 17 51 20 23 17 -19 -2 -44 -7 -55 -10 -11 -4 -6 0 10 9 32 16 109 12
132 -6z m220 -21 c-3 -8 -6 -5 -6 6 -1 11 2 17 5 13 3 -3 4 -12 1 -19z m-338
-37 c10 -6 6 -13 -18 -27 -48 -29 -90 -95 -111 -180 -11 -43 -20 -85 -20 -95
0 -46 -46 -31 -60 19 -15 55 -14 57 38 115 26 29 54 68 61 87 17 43 59 90 80
90 9 0 22 -4 30 -9z m-179 -46 c0 -19 -4 -35 -8 -35 -4 0 -6 16 -4 35 2 19 6
35 8 35 2 0 4 -16 4 -35z m252 1 c25 -19 12 -26 -37 -19 -38 5 -45 3 -60 -20
-18 -28 -14 -57 11 -82 23 -23 51 -18 86 15 17 17 35 30 40 30 12 0 -2 -24
-57 -98 -25 -35 -50 -75 -56 -88 -14 -38 -11 -134 6 -190 8 -27 15 -50 15 -52
0 -1 -34 -1 -75 0 -72 3 -95 11 -57 21 12 3 10 5 -8 7 -25 2 -25 2 5 16 l30
14 -32 -6 c-38 -6 -44 2 -10 16 22 9 22 9 -3 10 -25 2 -25 2 5 16 l30 14 -32
-6 c-38 -7 -43 2 -10 17 l22 10 -22 -5 c-35 -6 -27 12 10 24 l32 10 -37 -6
c-43 -6 -49 2 -15 17 l22 10 -22 -5 c-35 -7 -27 12 10 23 17 5 24 10 14 10
-10 1 -16 5 -13 10 3 5 8 24 11 42 6 49 13 77 26 118 35 107 117 168 171 127z
m173 -16 c-4 -6 -10 -8 -15 -5 -5 3 -11 1 -15 -4 -3 -6 -12 -8 -20 -4 -9 3
-21 1 -28 -4 -14 -11 -57 -24 -57 -17 0 3 19 14 43 24 45 21 102 27 92 10z
m20 -45 c-59 -29 -61 -30 -44 -9 16 19 46 33 74 33 11 0 -1 -10 -30 -24z m145
-10 c-7 -8 -17 -15 -23 -15 -6 0 -24 -12 -40 -27 l-30 -28 17 26 c9 15 31 34
49 43 40 19 42 20 27 1z m-239 -23 c-5 -9 -20 -26 -32 -37 -24 -20 -24 -20 -9
0 36 51 60 72 41 37z m309 1 c-14 -9 -38 -28 -54 -42 -27 -25 -28 -25 -17 -3
7 13 27 32 44 42 39 24 61 27 27 3z m-214 -8 c-11 -8 -22 -12 -25 -9 -6 6 19
24 34 24 6 -1 1 -7 -9 -15z m304 -15 c0 -5 -7 -10 -15 -10 -8 0 -33 -16 -55
-36 -45 -40 -56 -33 -12 9 21 20 55 40 80 46 1 1 2 -3 2 -9z m-360 -26 c0 -21
28 -17 40 6 16 29 42 15 28 -15 -24 -54 25 -76 60 -28 l20 28 7 -28 c9 -33 30
-35 57 -4 l19 22 -5 -32 c-4 -25 -1 -35 14 -43 15 -8 23 -4 44 23 15 19 26 26
26 17 1 -35 16 -43 49 -26 27 15 32 15 37 2 9 -22 -3 -34 -44 -46 -56 -15
-100 -12 -182 14 -102 32 -145 37 -199 20 -62 -19 -95 -18 -114 4 -14 16 -14
19 2 41 12 16 21 20 25 12 11 -18 22 -13 62 24 36 34 54 37 54 9z m440 -18
c-28 -15 -90 -30 -90 -22 0 5 87 34 105 35 6 0 -1 -6 -15 -13z m300 -5 c0 -4
-48 -25 -107 -46 -143 -50 -200 -79 -250 -128 -24 -22 -46 -37 -50 -33 -4 4
-1 11 7 16 12 8 12 10 1 10 -10 0 -11 3 -2 14 10 12 9 14 -6 10 -12 -4 -18
-14 -18 -35 0 -40 36 -39 72 2 16 17 48 42 74 54 50 26 329 129 333 124 20
-30 37 -61 34 -64 -2 -1 -40 -21 -85 -44 -153 -76 -358 -159 -435 -175 -42 -8
-94 -23 -115 -31 -23 -10 -33 -11 -26 -4 7 7 43 23 80 35 77 26 65 32 -16 8
-29 -8 -55 -13 -58 -10 -5 5 119 46 146 47 9 0 11 3 4 5 -6 3 -39 -2 -73 -11
-79 -20 -91 -12 -15 10 64 19 69 32 5 15 -23 -6 -44 -9 -47 -6 -3 3 22 13 56
22 71 20 76 31 7 13 -63 -16 -70 -5 -9 15 l48 15 -42 -5 c-51 -7 -56 1 -10 16
28 8 28 9 5 6 -16 -2 -28 1 -28 5 0 10 24 16 103 24 62 7 97 30 97 64 0 22 18
31 68 32 20 0 82 9 137 19 123 23 115 22 115 11z m70 -111 c0 -5 -5 -10 -11
-10 -5 0 -7 5 -4 10 3 6 8 10 11 10 2 0 4 -4 4 -10z m-930 -4 c0 -11 -19 -15
-25 -6 -3 5 1 10 9 10 9 0 16 -2 16 -4z m975 -38 c-4 -9 -25 -29 -48 -45 -58
-42 -294 -145 -321 -140 -19 3 -19 4 7 15 79 33 274 136 285 150 6 9 12 13 12
9 0 -4 14 2 32 13 35 21 41 21 33 -2z m-1277 -150 l10 -38 -44 0 c-24 0 -44 2
-44 5 0 15 54 85 61 78 4 -4 12 -25 17 -45z m1295 -6 l19 -32 -99 1 -98 1 70
33 c39 19 74 32 80 31 5 -1 18 -17 28 -34z m-1225 -68 c28 -8 29 -37 2 -71
-37 -48 -35 -91 8 -175 2 -5 -4 -8 -13 -8 -9 0 -30 -13 -46 -29 -25 -25 -29
-37 -29 -84 0 -62 21 -97 70 -117 51 -21 34 -30 -60 -30 l-90 0 0 253 c0 140
3 257 7 260 8 9 120 9 151 1z m1242 -255 l0 -259 -85 0 c-85 0 -104 9 -64 30
11 7 27 27 35 47 13 31 13 38 -1 59 -12 19 -13 32 -4 71 13 61 5 104 -26 133
-22 21 -25 32 -25 96 0 49 4 74 13 77 6 2 45 4 85 4 l72 0 0 -258z m-1046 201
c56 -21 58 -110 2 -110 -23 0 -23 2 -13 29 14 37 3 61 -27 61 -30 0 -56 -24
-56 -51 0 -11 27 -49 60 -84 58 -62 60 -66 60 -118 0 -92 -57 -135 -163 -124
-84 8 -122 72 -76 131 15 19 30 26 54 26 43 0 54 -16 20 -32 -14 -6 -28 -21
-31 -34 -7 -28 11 -64 34 -65 53 -4 72 17 72 78 0 37 -7 50 -55 104 -77 87
-75 142 8 180 47 21 74 23 111 9z m166 -11 c0 -16 -5 -20 -20 -16 -11 3 -20 1
-20 -4 0 -5 7 -9 15 -9 18 0 20 -41 3 -58 -7 -7 -22 -12 -35 -12 -17 0 -23 6
-23 21 0 16 5 20 20 16 11 -3 20 -1 20 4 0 5 -7 9 -15 9 -18 0 -20 41 -3 58 7
7 22 12 35 12 17 0 23 -6 23 -21z m84 12 c10 -16 -17 -111 -31 -111 -15 0 -16
5 -4 48 5 17 6 32 1 32 -4 0 -12 -17 -17 -37 -4 -20 -15 -39 -22 -41 -11 -4
-13 4 -7 38 4 23 11 51 17 61 10 20 53 26 63 10z m89 -6 c1 -5 -8 -11 -20 -13
-28 -4 -30 -22 -3 -22 11 0 20 -4 20 -10 0 -5 -9 -10 -19 -10 -11 0 -23 -4
-26 -10 -3 -5 3 -10 14 -10 14 0 19 -5 15 -15 -6 -14 -54 -21 -66 -10 -8 8 11
86 24 103 13 15 57 13 61 -3z m80 7 c10 -15 -16 -112 -29 -112 -8 0 -14 8 -14
18 -1 16 -1 16 -11 0 -5 -10 -15 -18 -21 -18 -13 0 -1 89 14 108 11 13 54 17
61 4z m43 -17 c-4 -14 -4 -25 -1 -25 3 0 10 11 15 25 5 14 14 25 20 25 12 0
14 -33 3 -44 -5 -4 -8 -15 -9 -24 -3 -46 -5 -52 -20 -52 -11 0 -15 6 -11 20 3
11 1 20 -4 20 -5 0 -9 -6 -9 -14 0 -16 -18 -31 -27 -23 -2 3 0 31 7 61 8 39
16 56 27 56 11 0 14 -6 9 -25z m134 10 c0 -9 -9 -15 -25 -15 -14 0 -25 -4 -25
-10 0 -5 9 -10 21 -10 12 0 19 -5 16 -12 -2 -7 -11 -12 -20 -10 -8 1 -18 -2
-22 -8 -3 -6 3 -10 15 -10 13 0 20 -5 18 -12 -3 -7 -18 -13 -34 -13 -28 0 -29
2 -27 43 1 24 7 50 14 58 16 19 69 19 69 -1z m76 0 c4 -8 1 -22 -6 -30 -6 -8
-9 -19 -5 -24 8 -13 -12 -51 -27 -51 -5 0 -8 9 -5 20 3 11 1 20 -4 20 -5 0 -9
-6 -9 -14 0 -16 -18 -31 -27 -23 -2 3 0 31 7 61 11 53 13 56 41 56 17 0 32 -6
35 -15z m114 -2 c-1 -10 -7 -46 -14 -81 -13 -58 -12 -63 3 -56 9 4 30 9 48 12
25 3 34 -1 48 -22 18 -27 18 -38 -1 -153 -5 -33 -3 -42 10 -45 15 -3 15 -5 1
-25 -19 -27 -57 -30 -80 -6 -13 13 -16 27 -11 62 20 152 20 151 -1 151 -30 0
-39 -17 -57 -110 -25 -125 -22 -120 -66 -120 -37 0 -38 1 -33 32 l5 31 -24
-27 c-33 -38 -107 -48 -147 -19 -26 20 -27 20 -50 2 -30 -24 -57 -24 -78 0
-16 20 -17 20 -41 0 -14 -10 -37 -19 -53 -19 -27 0 -59 22 -59 40 0 5 -16 -2
-36 -15 -44 -30 -64 -31 -95 -6 -23 18 -23 20 -12 100 7 45 10 88 7 96 -4 8
-2 15 4 15 5 0 12 9 15 20 4 15 14 20 41 20 29 0 36 -4 36 -20 0 -12 7 -20 16
-20 9 0 14 -6 12 -12 -3 -7 -11 -13 -19 -13 -32 0 -54 -140 -24 -152 24 -9 55
26 55 61 1 47 35 113 70 135 38 23 180 29 180 7 0 -6 -9 -52 -20 -101 -18 -86
-16 -116 9 -101 6 4 11 16 11 26 0 10 12 33 27 50 14 18 34 55 43 84 16 48 19
51 52 54 35 3 36 2 43 -35 6 -36 44 -156 45 -141 0 3 13 75 30 160 16 84 30
154 30 156 0 1 18 2 40 2 32 0 40 -4 40 -17z"/>
<path d="M935 1820 c-13 -5 -14 -9 -5 -9 8 0 24 4 35 9 13 5 14 9 5 9 -8 0
-24 -4 -35 -9z"/>
<path d="M1368 1413 c7 -3 16 -2 19 1 4 3 -2 6 -13 5 -11 0 -14 -3 -6 -6z"/>
<path d="M1301 1094 c0 -11 3 -14 6 -6 3 7 2 16 -1 19 -3 4 -6 -2 -5 -13z"/>
<path d="M1221 949 c-36 -39 -53 -147 -25 -169 12 -11 18 -10 32 4 17 16 54
164 45 179 -8 13 -32 7 -52 -14z"/>
<path d="M1442 912 c-6 -17 -8 -47 -5 -67 6 -34 -3 -42 -39 -36 -19 3 -6 -31
15 -38 54 -21 77 27 55 115 l-15 58 -11 -32z"/>
<path d="M1042 510 c0 -14 2 -19 5 -12 2 6 2 18 0 25 -3 6 -5 1 -5 -13z"/>
</g>
</svg>
